<svg width="32" height="32" viewBox="0 0 32 32" fill="none" xmlns="http://www.w3.org/2000/svg">
  <defs>
    <linearGradient id="brainGradient" x1="0%" y1="0%" x2="100%" y2="100%">
      <stop offset="0%" style="stop-color:#8B5CF6;stop-opacity:1" />
      <stop offset="50%" style="stop-color:#06B6D4;stop-opacity:1" />
      <stop offset="100%" style="stop-color:#10B981;stop-opacity:1" />
    </linearGradient>
  </defs>
  <rect width="32" height="32" rx="8" fill="url(#brainGradient)"/>
  <g transform="translate(6, 6)">
    <path d="M10 2C8.5 2 7.2 2.8 6.5 4C5.8 3.2 4.8 2.7 3.7 2.7C2.2 2.7 1 3.9 1 5.4C1 6.2 1.3 6.9 1.8 7.4C1.3 7.9 1 8.6 1 9.4C1 10.9 2.2 12.1 3.7 12.1C4.1 12.1 4.5 12 4.8 11.8C5.2 12.5 5.9 13 6.7 13.2C6.9 13.7 7.4 14 8 14C8.6 14 9.1 13.7 9.3 13.2C10.1 13 10.8 12.5 11.2 11.8C11.5 12 11.9 12.1 12.3 12.1C13.8 12.1 15 10.9 15 9.4C15 8.6 14.7 7.9 14.2 7.4C14.7 6.9 15 6.2 15 5.4C15 3.9 13.8 2.7 12.3 2.7C11.2 2.7 10.2 3.2 9.5 4C8.8 2.8 7.5 2 6 2H10Z" fill="white" opacity="0.9"/>
    <circle cx="6" cy="6" r="1" fill="white"/>
    <circle cx="10" cy="6" r="1" fill="white"/>
    <path d="M5 9C5.5 9.5 6.2 9.8 7 9.8C7.8 9.8 8.5 9.5 9 9" stroke="white" stroke-width="0.8" stroke-linecap="round" fill="none"/>
  </g>
</svg>